<svg xmlns="http://www.w3.org/2000/svg" width="32" height="32" viewBox="0 0 256 256"><!-- Icon from Skill Icons by tandpfun - https://github.com/tandpfun/skill-icons/blob/main/LICENSE --><g fill="none"><rect width="256" height="256" fill="#242938" rx="60"/><path fill="#76B3E1" d="M224 76.855S160 29.76 110.491 40.628l-3.623 1.208c-7.245 2.415-13.283 6.038-16.906 10.868l-2.415 3.622l-18.113 31.397l31.396 6.037c13.283 8.453 30.189 12.076 45.887 8.453l55.547 10.868z"/><path fill="url(#SVGe0RPXb8v)" d="M224 76.855S160 29.76 110.491 40.628l-3.623 1.208c-7.245 2.415-13.283 6.038-16.906 10.868l-2.415 3.622l-18.113 31.397l31.396 6.037c13.283 8.453 30.189 12.076 45.887 8.453l55.547 10.868z" opacity=".3"/><path fill="#518AC8" d="m89.962 76.854l-4.83 1.208C64.604 84.1 58.566 103.42 69.434 120.326c12.075 15.698 37.434 24.151 57.962 18.113l74.868-25.358s-64-47.095-112.302-36.227"/><path fill="url(#SVGzlzA7dXb)" d="m89.962 76.854l-4.83 1.208C64.604 84.1 58.566 103.42 69.434 120.326c12.075 15.698 37.434 24.151 57.962 18.113l74.868-25.358s-64-47.095-112.302-36.227" opacity=".3"/><path fill="url(#SVG06iALcpy)" d="M188.981 131.194a54.34 54.34 0 0 0-57.962-18.113l-74.868 24.151L32 179.496l135.245 22.943l24.151-43.471c4.83-8.453 3.623-18.114-2.415-27.774"/><path fill="url(#SVGp6Y0Uc6Q)" d="M164.83 173.458a54.335 54.335 0 0 0-57.962-18.113L32 179.496s64 48.302 113.509 36.226l3.623-1.207c20.528-6.038 27.774-25.359 15.698-41.057"/><defs><linearGradient id="SVGe0RPXb8v" x1="60.377" x2="210.717" y1="38.213" y2="111.27" gradientUnits="userSpaceOnUse"><stop offset=".1" stop-color="#76B3E1"/><stop offset=".3" stop-color="#DCF2FD"/><stop offset="1" stop-color="#76B3E1"/></linearGradient><linearGradient id="SVGzlzA7dXb" x1="142.853" x2="116.528" y1="73.956" y2="161.624" gradientUnits="userSpaceOnUse"><stop stop-color="#76B3E1"/><stop offset=".5" stop-color="#4377BB"/><stop offset="1" stop-color="#1F3B77"/></linearGradient><linearGradient id="SVG06iALcpy" x1="49.389" x2="201.419" y1="112.115" y2="215.481" gradientUnits="userSpaceOnUse"><stop stop-color="#315AA9"/><stop offset=".5" stop-color="#518AC8"/><stop offset="1" stop-color="#315AA9"/></linearGradient><linearGradient id="SVGp6Y0Uc6Q" x1="117.977" x2="56.634" y1="124.552" y2="349.519" gradientUnits="userSpaceOnUse"><stop stop-color="#4377BB"/><stop offset=".5" stop-color="#1A336B"/><stop offset="1" stop-color="#1A336B"/></linearGradient></defs></g></svg>
